<?xml version="1.0" encoding="UTF-8" standalone="no"?>
<!DOCTYPE svg PUBLIC "-//W3C//DTD SVG 1.1//EN"
 "http://www.w3.org/Graphics/SVG/1.1/DTD/svg11.dtd">
<!-- Generated by graphviz version 2.38.0 (20140413.2041)
 -->
<!-- Title: Tree Pages: 1 -->
<svg width="1126pt" height="671pt"
 viewBox="0.00 0.00 1126.00 671.00" xmlns="http://www.w3.org/2000/svg" xmlns:xlink="http://www.w3.org/1999/xlink">
<g id="graph0" class="graph" transform="scale(1 1) rotate(0) translate(4 667)">
<title>Tree</title>
<polygon fill="white" stroke="none" points="-4,4 -4,-667 1122,-667 1122,4 -4,4"/>
<!-- 0 -->
<g id="node1" class="node"><title>0</title>
<path fill="#e58139" fill-opacity="0.321569" stroke="black" d="M633.5,-663C633.5,-663 527.5,-663 527.5,-663 521.5,-663 515.5,-657 515.5,-651 515.5,-651 515.5,-592 515.5,-592 515.5,-586 521.5,-580 527.5,-580 527.5,-580 633.5,-580 633.5,-580 639.5,-580 645.5,-586 645.5,-592 645.5,-592 645.5,-651 645.5,-651 645.5,-657 639.5,-663 633.5,-663"/>
<text text-anchor="start" x="550" y="-647.8" font-family="Helvetica,sans-Serif" font-size="14.00">Sex ≤ 0.5</text>
<text text-anchor="start" x="543" y="-632.8" font-family="Helvetica,sans-Serif" font-size="14.00">gini = 0.482</text>
<text text-anchor="start" x="533" y="-617.8" font-family="Helvetica,sans-Serif" font-size="14.00">samples = 712</text>
<text text-anchor="start" x="523.5" y="-602.8" font-family="Helvetica,sans-Serif" font-size="14.00">value = [424, 288]</text>
<text text-anchor="start" x="538.5" y="-587.8" font-family="Helvetica,sans-Serif" font-size="14.00">class = Dead</text>
</g>
<!-- 1 -->
<g id="node2" class="node"><title>1</title>
<path fill="#399de5" fill-opacity="0.670588" stroke="black" d="M559.5,-544C559.5,-544 461.5,-544 461.5,-544 455.5,-544 449.5,-538 449.5,-532 449.5,-532 449.5,-473 449.5,-473 449.5,-467 455.5,-461 461.5,-461 461.5,-461 559.5,-461 559.5,-461 565.5,-461 571.5,-467 571.5,-473 571.5,-473 571.5,-532 571.5,-532 571.5,-538 565.5,-544 559.5,-544"/>
<text text-anchor="start" x="474" y="-528.8" font-family="Helvetica,sans-Serif" font-size="14.00">Fare ≤ 48.2</text>
<text text-anchor="start" x="473" y="-513.8" font-family="Helvetica,sans-Serif" font-size="14.00">gini = 0.372</text>
<text text-anchor="start" x="463" y="-498.8" font-family="Helvetica,sans-Serif" font-size="14.00">samples = 259</text>
<text text-anchor="start" x="457.5" y="-483.8" font-family="Helvetica,sans-Serif" font-size="14.00">value = [64, 195]</text>
<text text-anchor="start" x="458.5" y="-468.8" font-family="Helvetica,sans-Serif" font-size="14.00">class = Survived</text>
</g>
<!-- 0&#45;&gt;1 -->
<g id="edge1" class="edge"><title>0&#45;&gt;1</title>
<path fill="none" stroke="black" d="M556.214,-579.907C550.947,-571.105 545.322,-561.703 539.883,-552.612"/>
<polygon fill="black" stroke="black" points="542.881,-550.805 534.743,-544.021 536.874,-554.399 542.881,-550.805"/>
<text text-anchor="middle" x="528.649" y="-564.567" font-family="Helvetica,sans-Serif" font-size="14.00">True</text>
</g>
<!-- 2 -->
<g id="node13" class="node"><title>2</title>
<path fill="#e58139" fill-opacity="0.741176" stroke="black" d="M699.5,-544C699.5,-544 601.5,-544 601.5,-544 595.5,-544 589.5,-538 589.5,-532 589.5,-532 589.5,-473 589.5,-473 589.5,-467 595.5,-461 601.5,-461 601.5,-461 699.5,-461 699.5,-461 705.5,-461 711.5,-467 711.5,-473 711.5,-473 711.5,-532 711.5,-532 711.5,-538 705.5,-544 699.5,-544"/>
<text text-anchor="start" x="619.5" y="-528.8" font-family="Helvetica,sans-Serif" font-size="14.00">Age ≤ 6.5</text>
<text text-anchor="start" x="613" y="-513.8" font-family="Helvetica,sans-Serif" font-size="14.00">gini = 0.326</text>
<text text-anchor="start" x="603" y="-498.8" font-family="Helvetica,sans-Serif" font-size="14.00">samples = 453</text>
<text text-anchor="start" x="597.5" y="-483.8" font-family="Helvetica,sans-Serif" font-size="14.00">value = [360, 93]</text>
<text text-anchor="start" x="608.5" y="-468.8" font-family="Helvetica,sans-Serif" font-size="14.00">class = Dead</text>
</g>
<!-- 0&#45;&gt;2 -->
<g id="edge12" class="edge"><title>0&#45;&gt;2</title>
<path fill="none" stroke="black" d="M604.786,-579.907C610.053,-571.105 615.678,-561.703 621.117,-552.612"/>
<polygon fill="black" stroke="black" points="624.126,-554.399 626.257,-544.021 618.119,-550.805 624.126,-554.399"/>
<text text-anchor="middle" x="632.351" y="-564.567" font-family="Helvetica,sans-Serif" font-size="14.00">False</text>
</g>
<!-- 5 -->
<g id="node3" class="node"><title>5</title>
<path fill="#399de5" fill-opacity="0.490196" stroke="black" d="M421.5,-425C421.5,-425 323.5,-425 323.5,-425 317.5,-425 311.5,-419 311.5,-413 311.5,-413 311.5,-354 311.5,-354 311.5,-348 317.5,-342 323.5,-342 323.5,-342 421.5,-342 421.5,-342 427.5,-342 433.5,-348 433.5,-354 433.5,-354 433.5,-413 433.5,-413 433.5,-419 427.5,-425 421.5,-425"/>
<text text-anchor="start" x="336" y="-409.8" font-family="Helvetica,sans-Serif" font-size="14.00">Parch ≤ 3.5</text>
<text text-anchor="start" x="335" y="-394.8" font-family="Helvetica,sans-Serif" font-size="14.00">gini = 0.447</text>
<text text-anchor="start" x="325" y="-379.8" font-family="Helvetica,sans-Serif" font-size="14.00">samples = 184</text>
<text text-anchor="start" x="319.5" y="-364.8" font-family="Helvetica,sans-Serif" font-size="14.00">value = [62, 122]</text>
<text text-anchor="start" x="320.5" y="-349.8" font-family="Helvetica,sans-Serif" font-size="14.00">class = Survived</text>
</g>
<!-- 1&#45;&gt;5 -->
<g id="edge2" class="edge"><title>1&#45;&gt;5</title>
<path fill="none" stroke="black" d="M462.622,-460.907C451.489,-451.469 439.546,-441.343 428.112,-431.649"/>
<polygon fill="black" stroke="black" points="430.185,-428.818 420.294,-425.021 425.658,-434.157 430.185,-428.818"/>
</g>
<!-- 6 -->
<g id="node12" class="node"><title>6</title>
<path fill="#399de5" fill-opacity="0.972549" stroke="black" d="M559.5,-417.5C559.5,-417.5 463.5,-417.5 463.5,-417.5 457.5,-417.5 451.5,-411.5 451.5,-405.5 451.5,-405.5 451.5,-361.5 451.5,-361.5 451.5,-355.5 457.5,-349.5 463.5,-349.5 463.5,-349.5 559.5,-349.5 559.5,-349.5 565.5,-349.5 571.5,-355.5 571.5,-361.5 571.5,-361.5 571.5,-405.5 571.5,-405.5 571.5,-411.5 565.5,-417.5 559.5,-417.5"/>
<text text-anchor="start" x="474" y="-402.3" font-family="Helvetica,sans-Serif" font-size="14.00">gini = 0.052</text>
<text text-anchor="start" x="468" y="-387.3" font-family="Helvetica,sans-Serif" font-size="14.00">samples = 75</text>
<text text-anchor="start" x="467" y="-372.3" font-family="Helvetica,sans-Serif" font-size="14.00">value = [2, 73]</text>
<text text-anchor="start" x="459.5" y="-357.3" font-family="Helvetica,sans-Serif" font-size="14.00">class = Survived</text>
</g>
<!-- 1&#45;&gt;6 -->
<g id="edge11" class="edge"><title>1&#45;&gt;6</title>
<path fill="none" stroke="black" d="M510.847,-460.907C510.938,-450.204 511.037,-438.615 511.13,-427.776"/>
<polygon fill="black" stroke="black" points="514.631,-427.697 511.217,-417.667 507.631,-427.637 514.631,-427.697"/>
</g>
<!-- 11 -->
<g id="node4" class="node"><title>11</title>
<path fill="#399de5" fill-opacity="0.537255" stroke="black" d="M304.5,-306C304.5,-306 206.5,-306 206.5,-306 200.5,-306 194.5,-300 194.5,-294 194.5,-294 194.5,-235 194.5,-235 194.5,-229 200.5,-223 206.5,-223 206.5,-223 304.5,-223 304.5,-223 310.5,-223 316.5,-229 316.5,-235 316.5,-235 316.5,-294 316.5,-294 316.5,-300 310.5,-306 304.5,-306"/>
<text text-anchor="start" x="218" y="-290.8" font-family="Helvetica,sans-Serif" font-size="14.00">SibSp ≤ 2.5</text>
<text text-anchor="start" x="218" y="-275.8" font-family="Helvetica,sans-Serif" font-size="14.00">gini = 0.433</text>
<text text-anchor="start" x="208" y="-260.8" font-family="Helvetica,sans-Serif" font-size="14.00">samples = 177</text>
<text text-anchor="start" x="202.5" y="-245.8" font-family="Helvetica,sans-Serif" font-size="14.00">value = [56, 121]</text>
<text text-anchor="start" x="203.5" y="-230.8" font-family="Helvetica,sans-Serif" font-size="14.00">class = Survived</text>
</g>
<!-- 5&#45;&gt;11 -->
<g id="edge3" class="edge"><title>5&#45;&gt;11</title>
<path fill="none" stroke="black" d="M331.907,-341.907C322.651,-332.651 312.732,-322.732 303.209,-313.209"/>
<polygon fill="black" stroke="black" points="305.567,-310.617 296.021,-306.021 300.617,-315.567 305.567,-310.617"/>
</g>
<!-- 12 -->
<g id="node11" class="node"><title>12</title>
<path fill="#e58139" fill-opacity="0.831373" stroke="black" d="M422.5,-298.5C422.5,-298.5 346.5,-298.5 346.5,-298.5 340.5,-298.5 334.5,-292.5 334.5,-286.5 334.5,-286.5 334.5,-242.5 334.5,-242.5 334.5,-236.5 340.5,-230.5 346.5,-230.5 346.5,-230.5 422.5,-230.5 422.5,-230.5 428.5,-230.5 434.5,-236.5 434.5,-242.5 434.5,-242.5 434.5,-286.5 434.5,-286.5 434.5,-292.5 428.5,-298.5 422.5,-298.5"/>
<text text-anchor="start" x="347" y="-283.3" font-family="Helvetica,sans-Serif" font-size="14.00">gini = 0.245</text>
<text text-anchor="start" x="345" y="-268.3" font-family="Helvetica,sans-Serif" font-size="14.00">samples = 7</text>
<text text-anchor="start" x="344" y="-253.3" font-family="Helvetica,sans-Serif" font-size="14.00">value = [6, 1]</text>
<text text-anchor="start" x="342.5" y="-238.3" font-family="Helvetica,sans-Serif" font-size="14.00">class = Dead</text>
</g>
<!-- 5&#45;&gt;12 -->
<g id="edge10" class="edge"><title>5&#45;&gt;12</title>
<path fill="none" stroke="black" d="M376.663,-341.907C377.761,-331.204 378.95,-319.615 380.061,-308.776"/>
<polygon fill="black" stroke="black" points="383.56,-308.972 381.098,-298.667 376.596,-308.258 383.56,-308.972"/>
</g>
<!-- 13 -->
<g id="node5" class="node"><title>13</title>
<path fill="#399de5" fill-opacity="0.600000" stroke="black" d="M239.5,-187C239.5,-187 141.5,-187 141.5,-187 135.5,-187 129.5,-181 129.5,-175 129.5,-175 129.5,-116 129.5,-116 129.5,-110 135.5,-104 141.5,-104 141.5,-104 239.5,-104 239.5,-104 245.5,-104 251.5,-110 251.5,-116 251.5,-116 251.5,-175 251.5,-175 251.5,-181 245.5,-187 239.5,-187"/>
<text text-anchor="start" x="145.5" y="-171.8" font-family="Helvetica,sans-Serif" font-size="14.00">Fare ≤ 10.481</text>
<text text-anchor="start" x="153" y="-156.8" font-family="Helvetica,sans-Serif" font-size="14.00">gini = 0.409</text>
<text text-anchor="start" x="143" y="-141.8" font-family="Helvetica,sans-Serif" font-size="14.00">samples = 164</text>
<text text-anchor="start" x="137.5" y="-126.8" font-family="Helvetica,sans-Serif" font-size="14.00">value = [47, 117]</text>
<text text-anchor="start" x="138.5" y="-111.8" font-family="Helvetica,sans-Serif" font-size="14.00">class = Survived</text>
</g>
<!-- 11&#45;&gt;13 -->
<g id="edge4" class="edge"><title>11&#45;&gt;13</title>
<path fill="none" stroke="black" d="M232.949,-222.907C228.109,-214.195 222.943,-204.897 217.941,-195.893"/>
<polygon fill="black" stroke="black" points="220.928,-194.063 213.012,-187.021 214.808,-197.462 220.928,-194.063"/>
</g>
<!-- 14 -->
<g id="node8" class="node"><title>14</title>
<path fill="#e58139" fill-opacity="0.556863" stroke="black" d="M361,-187C361,-187 282,-187 282,-187 276,-187 270,-181 270,-175 270,-175 270,-116 270,-116 270,-110 276,-104 282,-104 282,-104 361,-104 361,-104 367,-104 373,-110 373,-116 373,-116 373,-175 373,-175 373,-181 367,-187 361,-187"/>
<text text-anchor="start" x="286.5" y="-171.8" font-family="Helvetica,sans-Serif" font-size="14.00">Age ≤ 16.5</text>
<text text-anchor="start" x="284" y="-156.8" font-family="Helvetica,sans-Serif" font-size="14.00">gini = 0.426</text>
<text text-anchor="start" x="278" y="-141.8" font-family="Helvetica,sans-Serif" font-size="14.00">samples = 13</text>
<text text-anchor="start" x="281" y="-126.8" font-family="Helvetica,sans-Serif" font-size="14.00">value = [9, 4]</text>
<text text-anchor="start" x="279.5" y="-111.8" font-family="Helvetica,sans-Serif" font-size="14.00">class = Dead</text>
</g>
<!-- 11&#45;&gt;14 -->
<g id="edge7" class="edge"><title>11&#45;&gt;14</title>
<path fill="none" stroke="black" d="M278.398,-222.907C283.313,-214.195 288.558,-204.897 293.637,-195.893"/>
<polygon fill="black" stroke="black" points="296.777,-197.45 298.642,-187.021 290.68,-194.011 296.777,-197.45"/>
</g>
<!-- 15 -->
<g id="node6" class="node"><title>15</title>
<path fill="none" stroke="black" d="M101,-68C101,-68 12,-68 12,-68 6,-68 0,-62 0,-56 0,-56 0,-12 0,-12 0,-6 6,-0 12,-0 12,-0 101,-0 101,-0 107,-0 113,-6 113,-12 113,-12 113,-56 113,-56 113,-62 107,-68 101,-68"/>
<text text-anchor="start" x="27.5" y="-52.8" font-family="Helvetica,sans-Serif" font-size="14.00">gini = 0.5</text>
<text text-anchor="start" x="13" y="-37.8" font-family="Helvetica,sans-Serif" font-size="14.00">samples = 42</text>
<text text-anchor="start" x="8" y="-22.8" font-family="Helvetica,sans-Serif" font-size="14.00">value = [21, 21]</text>
<text text-anchor="start" x="14.5" y="-7.8" font-family="Helvetica,sans-Serif" font-size="14.00">class = Dead</text>
</g>
<!-- 13&#45;&gt;15 -->
<g id="edge5" class="edge"><title>13&#45;&gt;15</title>
<path fill="none" stroke="black" d="M140.603,-103.726C128.995,-94.2406 116.653,-84.1551 105.102,-74.7159"/>
<polygon fill="black" stroke="black" points="107.208,-71.9171 97.2502,-68.2996 102.779,-77.3375 107.208,-71.9171"/>
</g>
<!-- 16 -->
<g id="node7" class="node"><title>16</title>
<path fill="#399de5" fill-opacity="0.729412" stroke="black" d="M239.5,-68C239.5,-68 143.5,-68 143.5,-68 137.5,-68 131.5,-62 131.5,-56 131.5,-56 131.5,-12 131.5,-12 131.5,-6 137.5,-0 143.5,-0 143.5,-0 239.5,-0 239.5,-0 245.5,-0 251.5,-6 251.5,-12 251.5,-12 251.5,-56 251.5,-56 251.5,-62 245.5,-68 239.5,-68"/>
<text text-anchor="start" x="154" y="-52.8" font-family="Helvetica,sans-Serif" font-size="14.00">gini = 0.335</text>
<text text-anchor="start" x="144" y="-37.8" font-family="Helvetica,sans-Serif" font-size="14.00">samples = 122</text>
<text text-anchor="start" x="143" y="-22.8" font-family="Helvetica,sans-Serif" font-size="14.00">value = [26, 96]</text>
<text text-anchor="start" x="139.5" y="-7.8" font-family="Helvetica,sans-Serif" font-size="14.00">class = Survived</text>
</g>
<!-- 13&#45;&gt;16 -->
<g id="edge6" class="edge"><title>13&#45;&gt;16</title>
<path fill="none" stroke="black" d="M190.872,-103.726C190.947,-95.5175 191.026,-86.8595 191.102,-78.56"/>
<polygon fill="black" stroke="black" points="194.604,-78.3312 191.196,-68.2996 187.605,-78.2672 194.604,-78.3312"/>
</g>
<!-- 17 -->
<g id="node9" class="node"><title>17</title>
<path fill="#e58139" fill-opacity="0.890196" stroke="black" d="M361,-68C361,-68 282,-68 282,-68 276,-68 270,-62 270,-56 270,-56 270,-12 270,-12 270,-6 276,-0 282,-0 282,-0 361,-0 361,-0 367,-0 373,-6 373,-12 373,-12 373,-56 373,-56 373,-62 367,-68 361,-68"/>
<text text-anchor="start" x="288" y="-52.8" font-family="Helvetica,sans-Serif" font-size="14.00">gini = 0.18</text>
<text text-anchor="start" x="278" y="-37.8" font-family="Helvetica,sans-Serif" font-size="14.00">samples = 10</text>
<text text-anchor="start" x="281" y="-22.8" font-family="Helvetica,sans-Serif" font-size="14.00">value = [9, 1]</text>
<text text-anchor="start" x="279.5" y="-7.8" font-family="Helvetica,sans-Serif" font-size="14.00">class = Dead</text>
</g>
<!-- 14&#45;&gt;17 -->
<g id="edge8" class="edge"><title>14&#45;&gt;17</title>
<path fill="none" stroke="black" d="M321.5,-103.726C321.5,-95.5175 321.5,-86.8595 321.5,-78.56"/>
<polygon fill="black" stroke="black" points="325,-78.2996 321.5,-68.2996 318,-78.2996 325,-78.2996"/>
</g>
<!-- 18 -->
<g id="node10" class="node"><title>18</title>
<path fill="#399de5" stroke="black" d="M499.5,-68C499.5,-68 403.5,-68 403.5,-68 397.5,-68 391.5,-62 391.5,-56 391.5,-56 391.5,-12 391.5,-12 391.5,-6 397.5,-0 403.5,-0 403.5,-0 499.5,-0 499.5,-0 505.5,-0 511.5,-6 511.5,-12 511.5,-12 511.5,-56 511.5,-56 511.5,-62 505.5,-68 499.5,-68"/>
<text text-anchor="start" x="422.5" y="-52.8" font-family="Helvetica,sans-Serif" font-size="14.00">gini = 0.0</text>
<text text-anchor="start" x="412" y="-37.8" font-family="Helvetica,sans-Serif" font-size="14.00">samples = 3</text>
<text text-anchor="start" x="411" y="-22.8" font-family="Helvetica,sans-Serif" font-size="14.00">value = [0, 3]</text>
<text text-anchor="start" x="399.5" y="-7.8" font-family="Helvetica,sans-Serif" font-size="14.00">class = Survived</text>
</g>
<!-- 14&#45;&gt;18 -->
<g id="edge9" class="edge"><title>14&#45;&gt;18</title>
<path fill="none" stroke="black" d="M369.907,-103.726C381.06,-94.3318 392.912,-84.349 404.025,-74.9883"/>
<polygon fill="black" stroke="black" points="406.573,-77.4188 411.966,-68.2996 402.063,-72.065 406.573,-77.4188"/>
</g>
<!-- 3 -->
<g id="node14" class="node"><title>3</title>
<path fill="#399de5" fill-opacity="0.498039" stroke="black" d="M698.5,-425C698.5,-425 602.5,-425 602.5,-425 596.5,-425 590.5,-419 590.5,-413 590.5,-413 590.5,-354 590.5,-354 590.5,-348 596.5,-342 602.5,-342 602.5,-342 698.5,-342 698.5,-342 704.5,-342 710.5,-348 710.5,-354 710.5,-354 710.5,-413 710.5,-413 710.5,-419 704.5,-425 698.5,-425"/>
<text text-anchor="start" x="613" y="-409.8" font-family="Helvetica,sans-Serif" font-size="14.00">SibSp ≤ 2.5</text>
<text text-anchor="start" x="613" y="-394.8" font-family="Helvetica,sans-Serif" font-size="14.00">gini = 0.444</text>
<text text-anchor="start" x="607" y="-379.8" font-family="Helvetica,sans-Serif" font-size="14.00">samples = 24</text>
<text text-anchor="start" x="606" y="-364.8" font-family="Helvetica,sans-Serif" font-size="14.00">value = [8, 16]</text>
<text text-anchor="start" x="598.5" y="-349.8" font-family="Helvetica,sans-Serif" font-size="14.00">class = Survived</text>
</g>
<!-- 2&#45;&gt;3 -->
<g id="edge13" class="edge"><title>2&#45;&gt;3</title>
<path fill="none" stroke="black" d="M650.5,-460.907C650.5,-452.649 650.5,-443.864 650.5,-435.302"/>
<polygon fill="black" stroke="black" points="654,-435.021 650.5,-425.021 647,-435.021 654,-435.021"/>
</g>
<!-- 4 -->
<g id="node17" class="node"><title>4</title>
<path fill="#e58139" fill-opacity="0.780392" stroke="black" d="M838.5,-425C838.5,-425 740.5,-425 740.5,-425 734.5,-425 728.5,-419 728.5,-413 728.5,-413 728.5,-354 728.5,-354 728.5,-348 734.5,-342 740.5,-342 740.5,-342 838.5,-342 838.5,-342 844.5,-342 850.5,-348 850.5,-354 850.5,-354 850.5,-413 850.5,-413 850.5,-419 844.5,-425 838.5,-425"/>
<text text-anchor="start" x="744.5" y="-409.8" font-family="Helvetica,sans-Serif" font-size="14.00">Fare ≤ 26.269</text>
<text text-anchor="start" x="752" y="-394.8" font-family="Helvetica,sans-Serif" font-size="14.00">gini = 0.295</text>
<text text-anchor="start" x="742" y="-379.8" font-family="Helvetica,sans-Serif" font-size="14.00">samples = 429</text>
<text text-anchor="start" x="736.5" y="-364.8" font-family="Helvetica,sans-Serif" font-size="14.00">value = [352, 77]</text>
<text text-anchor="start" x="747.5" y="-349.8" font-family="Helvetica,sans-Serif" font-size="14.00">class = Dead</text>
</g>
<!-- 2&#45;&gt;4 -->
<g id="edge16" class="edge"><title>2&#45;&gt;4</title>
<path fill="none" stroke="black" d="M698.725,-460.907C709.938,-451.469 721.969,-441.343 733.485,-431.649"/>
<polygon fill="black" stroke="black" points="735.963,-434.138 741.36,-425.021 731.455,-428.783 735.963,-434.138"/>
</g>
<!-- 7 -->
<g id="node15" class="node"><title>7</title>
<path fill="#399de5" stroke="black" d="M573.5,-298.5C573.5,-298.5 477.5,-298.5 477.5,-298.5 471.5,-298.5 465.5,-292.5 465.5,-286.5 465.5,-286.5 465.5,-242.5 465.5,-242.5 465.5,-236.5 471.5,-230.5 477.5,-230.5 477.5,-230.5 573.5,-230.5 573.5,-230.5 579.5,-230.5 585.5,-236.5 585.5,-242.5 585.5,-242.5 585.5,-286.5 585.5,-286.5 585.5,-292.5 579.5,-298.5 573.5,-298.5"/>
<text text-anchor="start" x="496.5" y="-283.3" font-family="Helvetica,sans-Serif" font-size="14.00">gini = 0.0</text>
<text text-anchor="start" x="482" y="-268.3" font-family="Helvetica,sans-Serif" font-size="14.00">samples = 15</text>
<text text-anchor="start" x="481" y="-253.3" font-family="Helvetica,sans-Serif" font-size="14.00">value = [0, 15]</text>
<text text-anchor="start" x="473.5" y="-238.3" font-family="Helvetica,sans-Serif" font-size="14.00">class = Survived</text>
</g>
<!-- 3&#45;&gt;7 -->
<g id="edge14" class="edge"><title>3&#45;&gt;7</title>
<path fill="none" stroke="black" d="M607.132,-341.907C594.636,-330.211 581.01,-317.457 568.534,-305.78"/>
<polygon fill="black" stroke="black" points="570.627,-302.945 560.935,-298.667 565.844,-308.056 570.627,-302.945"/>
</g>
<!-- 8 -->
<g id="node16" class="node"><title>8</title>
<path fill="#e58139" fill-opacity="0.874510" stroke="black" d="M691.5,-298.5C691.5,-298.5 615.5,-298.5 615.5,-298.5 609.5,-298.5 603.5,-292.5 603.5,-286.5 603.5,-286.5 603.5,-242.5 603.5,-242.5 603.5,-236.5 609.5,-230.5 615.5,-230.5 615.5,-230.5 691.5,-230.5 691.5,-230.5 697.5,-230.5 703.5,-236.5 703.5,-242.5 703.5,-242.5 703.5,-286.5 703.5,-286.5 703.5,-292.5 697.5,-298.5 691.5,-298.5"/>
<text text-anchor="start" x="616" y="-283.3" font-family="Helvetica,sans-Serif" font-size="14.00">gini = 0.198</text>
<text text-anchor="start" x="614" y="-268.3" font-family="Helvetica,sans-Serif" font-size="14.00">samples = 9</text>
<text text-anchor="start" x="613" y="-253.3" font-family="Helvetica,sans-Serif" font-size="14.00">value = [8, 1]</text>
<text text-anchor="start" x="611.5" y="-238.3" font-family="Helvetica,sans-Serif" font-size="14.00">class = Dead</text>
</g>
<!-- 3&#45;&gt;8 -->
<g id="edge15" class="edge"><title>3&#45;&gt;8</title>
<path fill="none" stroke="black" d="M651.541,-341.907C651.815,-331.204 652.112,-319.615 652.39,-308.776"/>
<polygon fill="black" stroke="black" points="655.892,-308.753 652.65,-298.667 648.894,-308.574 655.892,-308.753"/>
</g>
<!-- 9 -->
<g id="node18" class="node"><title>9</title>
<path fill="#e58139" fill-opacity="0.870588" stroke="black" d="M836.5,-306C836.5,-306 738.5,-306 738.5,-306 732.5,-306 726.5,-300 726.5,-294 726.5,-294 726.5,-235 726.5,-235 726.5,-229 732.5,-223 738.5,-223 738.5,-223 836.5,-223 836.5,-223 842.5,-223 848.5,-229 848.5,-235 848.5,-235 848.5,-294 848.5,-294 848.5,-300 842.5,-306 836.5,-306"/>
<text text-anchor="start" x="752.5" y="-290.8" font-family="Helvetica,sans-Serif" font-size="14.00">Age ≤ 13.5</text>
<text text-anchor="start" x="750" y="-275.8" font-family="Helvetica,sans-Serif" font-size="14.00">gini = 0.204</text>
<text text-anchor="start" x="740" y="-260.8" font-family="Helvetica,sans-Serif" font-size="14.00">samples = 304</text>
<text text-anchor="start" x="734.5" y="-245.8" font-family="Helvetica,sans-Serif" font-size="14.00">value = [269, 35]</text>
<text text-anchor="start" x="745.5" y="-230.8" font-family="Helvetica,sans-Serif" font-size="14.00">class = Dead</text>
</g>
<!-- 4&#45;&gt;9 -->
<g id="edge17" class="edge"><title>4&#45;&gt;9</title>
<path fill="none" stroke="black" d="M788.806,-341.907C788.663,-333.558 788.511,-324.671 788.364,-316.02"/>
<polygon fill="black" stroke="black" points="791.863,-315.959 788.193,-306.021 784.864,-316.079 791.863,-315.959"/>
</g>
<!-- 10 -->
<g id="node21" class="node"><title>10</title>
<path fill="#e58139" fill-opacity="0.494118" stroke="black" d="M971,-306C971,-306 882,-306 882,-306 876,-306 870,-300 870,-294 870,-294 870,-235 870,-235 870,-229 876,-223 882,-223 882,-223 971,-223 971,-223 977,-223 983,-229 983,-235 983,-235 983,-294 983,-294 983,-300 977,-306 971,-306"/>
<text text-anchor="start" x="881.5" y="-290.8" font-family="Helvetica,sans-Serif" font-size="14.00">Fare ≤ 26.469</text>
<text text-anchor="start" x="889" y="-275.8" font-family="Helvetica,sans-Serif" font-size="14.00">gini = 0.446</text>
<text text-anchor="start" x="879" y="-260.8" font-family="Helvetica,sans-Serif" font-size="14.00">samples = 125</text>
<text text-anchor="start" x="878" y="-245.8" font-family="Helvetica,sans-Serif" font-size="14.00">value = [83, 42]</text>
<text text-anchor="start" x="884.5" y="-230.8" font-family="Helvetica,sans-Serif" font-size="14.00">class = Dead</text>
</g>
<!-- 4&#45;&gt;10 -->
<g id="edge20" class="edge"><title>4&#45;&gt;10</title>
<path fill="none" stroke="black" d="M837.031,-341.907C848.083,-332.469 859.94,-322.343 871.291,-312.649"/>
<polygon fill="black" stroke="black" points="873.721,-315.177 879.053,-306.021 869.175,-309.854 873.721,-315.177"/>
</g>
<!-- 21 -->
<g id="node19" class="node"><title>21</title>
<path fill="#399de5" fill-opacity="0.666667" stroke="black" d="M696.5,-179.5C696.5,-179.5 600.5,-179.5 600.5,-179.5 594.5,-179.5 588.5,-173.5 588.5,-167.5 588.5,-167.5 588.5,-123.5 588.5,-123.5 588.5,-117.5 594.5,-111.5 600.5,-111.5 600.5,-111.5 696.5,-111.5 696.5,-111.5 702.5,-111.5 708.5,-117.5 708.5,-123.5 708.5,-123.5 708.5,-167.5 708.5,-167.5 708.5,-173.5 702.5,-179.5 696.5,-179.5"/>
<text text-anchor="start" x="611" y="-164.3" font-family="Helvetica,sans-Serif" font-size="14.00">gini = 0.375</text>
<text text-anchor="start" x="609" y="-149.3" font-family="Helvetica,sans-Serif" font-size="14.00">samples = 4</text>
<text text-anchor="start" x="608" y="-134.3" font-family="Helvetica,sans-Serif" font-size="14.00">value = [1, 3]</text>
<text text-anchor="start" x="596.5" y="-119.3" font-family="Helvetica,sans-Serif" font-size="14.00">class = Survived</text>
</g>
<!-- 9&#45;&gt;21 -->
<g id="edge18" class="edge"><title>9&#45;&gt;21</title>
<path fill="none" stroke="black" d="M739.275,-222.907C725.117,-210.99 709.655,-197.976 695.57,-186.12"/>
<polygon fill="black" stroke="black" points="697.808,-183.429 687.903,-179.667 693.3,-188.784 697.808,-183.429"/>
</g>
<!-- 22 -->
<g id="node20" class="node"><title>22</title>
<path fill="#e58139" fill-opacity="0.882353" stroke="black" d="M836.5,-179.5C836.5,-179.5 738.5,-179.5 738.5,-179.5 732.5,-179.5 726.5,-173.5 726.5,-167.5 726.5,-167.5 726.5,-123.5 726.5,-123.5 726.5,-117.5 732.5,-111.5 738.5,-111.5 738.5,-111.5 836.5,-111.5 836.5,-111.5 842.5,-111.5 848.5,-117.5 848.5,-123.5 848.5,-123.5 848.5,-167.5 848.5,-167.5 848.5,-173.5 842.5,-179.5 836.5,-179.5"/>
<text text-anchor="start" x="750" y="-164.3" font-family="Helvetica,sans-Serif" font-size="14.00">gini = 0.191</text>
<text text-anchor="start" x="740" y="-149.3" font-family="Helvetica,sans-Serif" font-size="14.00">samples = 300</text>
<text text-anchor="start" x="734.5" y="-134.3" font-family="Helvetica,sans-Serif" font-size="14.00">value = [268, 32]</text>
<text text-anchor="start" x="745.5" y="-119.3" font-family="Helvetica,sans-Serif" font-size="14.00">class = Dead</text>
</g>
<!-- 9&#45;&gt;22 -->
<g id="edge19" class="edge"><title>9&#45;&gt;22</title>
<path fill="none" stroke="black" d="M787.5,-222.907C787.5,-212.204 787.5,-200.615 787.5,-189.776"/>
<polygon fill="black" stroke="black" points="791,-189.667 787.5,-179.667 784,-189.667 791,-189.667"/>
</g>
<!-- 19 -->
<g id="node22" class="node"><title>19</title>
<path fill="#399de5" stroke="black" d="M974.5,-179.5C974.5,-179.5 878.5,-179.5 878.5,-179.5 872.5,-179.5 866.5,-173.5 866.5,-167.5 866.5,-167.5 866.5,-123.5 866.5,-123.5 866.5,-117.5 872.5,-111.5 878.5,-111.5 878.5,-111.5 974.5,-111.5 974.5,-111.5 980.5,-111.5 986.5,-117.5 986.5,-123.5 986.5,-123.5 986.5,-167.5 986.5,-167.5 986.5,-173.5 980.5,-179.5 974.5,-179.5"/>
<text text-anchor="start" x="897.5" y="-164.3" font-family="Helvetica,sans-Serif" font-size="14.00">gini = 0.0</text>
<text text-anchor="start" x="887" y="-149.3" font-family="Helvetica,sans-Serif" font-size="14.00">samples = 4</text>
<text text-anchor="start" x="886" y="-134.3" font-family="Helvetica,sans-Serif" font-size="14.00">value = [0, 4]</text>
<text text-anchor="start" x="874.5" y="-119.3" font-family="Helvetica,sans-Serif" font-size="14.00">class = Survived</text>
</g>
<!-- 10&#45;&gt;19 -->
<g id="edge21" class="edge"><title>10&#45;&gt;19</title>
<path fill="none" stroke="black" d="M926.5,-222.907C926.5,-212.204 926.5,-200.615 926.5,-189.776"/>
<polygon fill="black" stroke="black" points="930,-189.667 926.5,-179.667 923,-189.667 930,-189.667"/>
</g>
<!-- 20 -->
<g id="node23" class="node"><title>20</title>
<path fill="#e58139" fill-opacity="0.541176" stroke="black" d="M1106,-179.5C1106,-179.5 1017,-179.5 1017,-179.5 1011,-179.5 1005,-173.5 1005,-167.5 1005,-167.5 1005,-123.5 1005,-123.5 1005,-117.5 1011,-111.5 1017,-111.5 1017,-111.5 1106,-111.5 1106,-111.5 1112,-111.5 1118,-117.5 1118,-123.5 1118,-123.5 1118,-167.5 1118,-167.5 1118,-173.5 1112,-179.5 1106,-179.5"/>
<text text-anchor="start" x="1024" y="-164.3" font-family="Helvetica,sans-Serif" font-size="14.00">gini = 0.431</text>
<text text-anchor="start" x="1014" y="-149.3" font-family="Helvetica,sans-Serif" font-size="14.00">samples = 121</text>
<text text-anchor="start" x="1013" y="-134.3" font-family="Helvetica,sans-Serif" font-size="14.00">value = [83, 38]</text>
<text text-anchor="start" x="1019.5" y="-119.3" font-family="Helvetica,sans-Serif" font-size="14.00">class = Dead</text>
</g>
<!-- 10&#45;&gt;20 -->
<g id="edge22" class="edge"><title>10&#45;&gt;20</title>
<path fill="none" stroke="black" d="M973.338,-222.907C986.961,-211.101 1001.83,-198.217 1015.4,-186.45"/>
<polygon fill="black" stroke="black" points="1017.97,-188.861 1023.23,-179.667 1013.38,-183.571 1017.97,-188.861"/>
</g>
</g>
</svg>
